<?xml version="1.0" encoding="iso-8859-1"?>
<!-- Generator: Adobe Illustrator 18.0.0, SVG Export Plug-In . SVG Version: 6.00 Build 0)  -->
<!DOCTYPE svg PUBLIC "-//W3C//DTD SVG 1.1//EN" "http://www.w3.org/Graphics/SVG/1.1/DTD/svg11.dtd">
<svg version="1.1" id="Capa_1" xmlns="http://www.w3.org/2000/svg" xmlns:xlink="http://www.w3.org/1999/xlink" x="0px" y="0px"
	 viewBox="0 0 58 58" style="enable-background:new 0 0 58 58;" xml:space="preserve">
<g>
	<path d="M34.5,26c0-4.963-4.037-9-9-9s-9,4.037-9,9s4.037,9,9,9S34.5,30.963,34.5,26z M28.5,21h2c0.553,0,1,0.447,1,1s-0.447,1-1,1
		h-2c-0.553,0-1-0.447-1-1S27.947,21,28.5,21z M18.5,26c0-0.553,0.447-1,1-1h4c0.553,0,1,0.447,1,1s-0.447,1-1,1h-4
		C18.947,27,18.5,26.553,18.5,26z M24.5,31h-2c-0.553,0-1-0.447-1-1s0.447-1,1-1h2c0.553,0,1,0.447,1,1S25.053,31,24.5,31z M25.5,23
		h-6c-0.553,0-1-0.447-1-1s0.447-1,1-1h6c0.553,0,1,0.447,1,1S26.053,23,25.5,23z M26.5,26c0-0.553,0.447-1,1-1h5
		c0.553,0,1,0.447,1,1s-0.447,1-1,1h-5C26.947,27,26.5,26.553,26.5,26z M30.5,31h-2c-0.553,0-1-0.447-1-1s0.447-1,1-1h2
		c0.553,0,1,0.447,1,1S31.053,31,30.5,31z"/>
	<path d="M50.95,12.187L39.313,0.55C38.964,0.201,38.48,0,37.985,0H8.963C7.777,0,6.5,0.916,6.5,2.926V56c0,1.009,1.22,2,2.463,2
		h40.074c1.243,0,2.463-0.991,2.463-2V13.978C51.5,13.212,51.408,12.645,50.95,12.187z M43.207,45.707
		C43.012,45.902,42.756,46,42.5,46s-0.512-0.098-0.707-0.293L31.372,35.286C29.67,36.365,27.66,37,25.5,37c-6.065,0-11-4.935-11-11
		s4.935-11,11-11s11,4.935,11,11c0,3.182-1.366,6.043-3.532,8.054l10.24,10.239C43.598,44.684,43.598,45.316,43.207,45.707z
		 M48.109,14H37.5V3.391c0-0.458,0.553-0.687,0.877-0.363l10.095,10.095C48.796,13.447,48.567,14,48.109,14z"/>
</g>
<g>
</g>
<g>
</g>
<g>
</g>
<g>
</g>
<g>
</g>
<g>
</g>
<g>
</g>
<g>
</g>
<g>
</g>
<g>
</g>
<g>
</g>
<g>
</g>
<g>
</g>
<g>
</g>
<g>
</g>
</svg>
